<svg width="512" height="512" viewBox="0 0 512 512" fill="none" xmlns="http://www.w3.org/2000/svg">
<path d="M467.45 102.531C467.45 89.4054 456.906 78.8529 443.784 78.8433L237.256 78.6924C230.242 78.6873 223.536 81.7527 218.904 87.082L146.94 169.872C145.921 171.044 145.016 172.31 144.238 173.652L85.7429 274.595C83.5949 278.302 82.4646 282.501 82.468 286.761L82.5844 429.417C82.5951 442.532 93.1302 453.072 106.242 453.086L235.341 453.226C238.066 453.229 240.776 452.768 243.358 451.862L451.139 378.985C460.894 375.564 467.461 366.328 467.46 356.032L467.45 102.531Z" fill="url(#paint0_linear_2997_58)"/>
<path d="M47.8355 51.4059C49.1596 39.2269 59.4441 30 71.6949 30H253.503C260.416 30 266.993 32.9805 271.55 38.1782L487.02 283.943C491.467 289.015 493.574 295.724 492.825 302.427L474.882 463.163C473.526 475.312 463.255 484.5 451.03 484.5H294.53C290.255 484.5 286.056 483.358 282.37 481.191L31.376 333.68C23.2351 328.896 18.6563 319.782 19.677 310.395L47.8355 51.4059Z" fill="url(#paint1_linear_2997_58)"/>
<rect x="92" y="110" width="316" height="316" rx="158" fill="url(#paint2_linear_2997_58)"/>
<path d="M201.346 176.178C201.783 176.175 202.219 176.172 202.67 176.169C204.132 176.16 205.595 176.161 207.057 176.162C208.106 176.158 209.155 176.154 210.205 176.149C213.054 176.137 215.904 176.134 218.753 176.133C220.833 176.132 222.912 176.128 224.992 176.124C230.586 176.112 236.18 176.107 241.775 176.108C242.092 176.108 242.41 176.108 242.737 176.108C243.055 176.109 243.373 176.109 243.7 176.109C248.849 176.109 253.998 176.096 259.147 176.077C264.44 176.058 269.732 176.049 275.024 176.05C277.993 176.05 280.962 176.046 283.931 176.032C286.725 176.019 289.518 176.019 292.311 176.029C293.335 176.03 294.359 176.027 295.382 176.019C305.508 175.944 305.508 175.944 308.66 179.049C311.261 182.011 311.37 183.276 311.799 187.57C271.394 187.57 230.988 187.57 189.358 187.57C189.358 184.017 189.491 182.176 191.876 179.618C194.851 176.946 197.411 176.158 201.346 176.178Z" fill="#E5422B"/>
<path d="M185.154 194.901C185.731 194.898 186.308 194.896 186.902 194.894C188.5 194.887 190.097 194.889 191.695 194.892C193.419 194.894 195.144 194.889 196.868 194.884C200.245 194.877 203.622 194.876 206.999 194.878C209.744 194.88 212.49 194.88 215.235 194.877C215.821 194.877 215.821 194.877 216.419 194.876C217.212 194.876 218.006 194.875 218.8 194.874C226.243 194.868 233.687 194.87 241.13 194.876C247.939 194.88 254.748 194.874 261.556 194.864C268.548 194.853 275.54 194.848 282.533 194.851C286.458 194.853 290.383 194.852 294.308 194.844C297.65 194.837 300.991 194.837 304.333 194.845C306.037 194.849 307.742 194.85 309.446 194.843C311.295 194.835 313.143 194.842 314.992 194.85C315.798 194.844 315.798 194.844 316.621 194.837C320.169 194.868 322.636 195.334 325.363 197.766C325.604 198.062 325.846 198.358 326.095 198.663C326.344 198.959 326.592 199.255 326.848 199.56C328.65 202.053 328.394 202.886 328.394 206.287C276.74 206.287 225.086 206.287 171.867 206.287C171.867 202.861 172.467 200.517 174.763 197.925C178.052 195.053 180.969 194.88 185.154 194.901Z" fill="#E5422B"/>
<path d="M283.095 213.674C294.936 213.674 306.776 213.674 318.975 213.674C318.975 230.547 318.975 247.42 318.975 264.803C314.474 261.803 314.474 261.803 312.556 260.178C309.98 258.034 307.317 256.033 304.623 254.039C304.185 253.649 304.185 253.649 303.739 253.251C302.446 252.459 301.629 252.492 300.138 252.694C298.918 253.36 298.918 253.36 297.756 254.348C297.294 254.712 296.833 255.076 296.358 255.451C296.105 255.654 295.853 255.857 295.592 256.066C293.998 257.333 292.369 258.554 290.748 259.786C290.108 260.274 289.468 260.763 288.829 261.252C288.536 261.476 288.243 261.7 287.941 261.931C287.23 262.484 286.534 263.056 285.841 263.631C284.889 264.355 284.889 264.355 283.992 264.355C283.992 264.651 283.992 264.947 283.992 265.252C283.696 265.252 283.4 265.252 283.095 265.252C283.095 248.231 283.095 231.211 283.095 213.674Z" fill="#E5422B"/>
<path d="M170.798 213.677C171.36 213.676 171.36 213.676 171.933 213.674C172.55 213.676 172.55 213.676 173.18 213.678C173.617 213.678 174.054 213.678 174.504 213.677C175.975 213.676 177.446 213.679 178.917 213.681C179.969 213.681 181.02 213.681 182.072 213.681C184.934 213.681 187.795 213.684 190.656 213.687C193.342 213.689 196.027 213.69 198.713 213.69C204.033 213.691 209.353 213.694 214.672 213.698C219.841 213.702 225.009 213.706 230.177 213.708C230.495 213.708 230.814 213.708 231.142 213.708C232.74 213.709 234.337 213.709 235.935 213.71C249.193 213.714 262.451 213.722 275.709 213.732C275.709 214.038 275.71 214.343 275.711 214.658C275.727 222.088 275.754 229.518 275.791 236.948C275.809 240.542 275.823 244.135 275.83 247.728C275.836 250.86 275.848 253.992 275.868 257.124C275.878 258.782 275.885 260.44 275.884 262.099C275.884 263.95 275.897 265.801 275.912 267.652C275.91 268.202 275.908 268.752 275.905 269.318C275.913 272.215 275.913 272.215 277.013 274.834C278.298 275.918 279.305 276.342 281.015 276.31C283.303 275.754 285.118 273.925 286.921 272.486C287.836 271.784 288.752 271.083 289.668 270.383C291.369 269.075 293.063 267.757 294.754 266.435C295.441 265.901 296.129 265.367 296.816 264.833C297.142 264.576 297.468 264.32 297.804 264.055C298.112 263.816 298.42 263.578 298.738 263.332C299.011 263.118 299.284 262.905 299.565 262.685C300.465 262.114 301.107 261.829 302.17 261.722C303.295 262.487 304.283 263.251 305.31 264.132C305.916 264.636 306.524 265.139 307.132 265.641C307.432 265.891 307.732 266.141 308.041 266.399C309.612 267.692 311.245 268.897 312.883 270.103C313.935 270.884 314.968 271.677 315.998 272.486C316.593 272.944 317.188 273.402 317.784 273.859C318.057 274.079 318.331 274.299 318.613 274.525C320.483 275.945 321.723 276.393 324.147 276.074C325.381 275.268 326.177 274.705 326.838 273.383C326.885 272.593 326.903 271.802 326.909 271.01C326.913 270.507 326.917 270.004 326.922 269.486C326.924 268.931 326.927 268.377 326.93 267.805C326.934 267.223 326.939 266.641 326.943 266.042C326.955 264.443 326.965 262.845 326.974 261.247C326.983 259.577 326.996 257.908 327.008 256.238C327.03 253.076 327.05 249.913 327.07 246.751C327.092 243.151 327.116 239.551 327.141 235.951C327.192 228.545 327.24 221.139 327.286 213.732C327.924 213.718 328.563 213.707 329.201 213.699C329.556 213.693 329.912 213.687 330.278 213.68C333.05 213.818 335.29 215.372 337.153 217.32C338.661 220.343 338.689 223.435 338.666 226.745C338.668 227.276 338.67 227.806 338.672 228.353C338.675 229.817 338.673 231.28 338.668 232.744C338.664 234.326 338.668 235.908 338.671 237.49C338.675 240.585 338.672 243.681 338.666 246.776C338.66 250.381 338.661 253.987 338.662 257.592C338.663 264.026 338.658 270.459 338.649 276.892C338.641 283.132 338.638 289.373 338.64 295.614C338.643 302.414 338.643 309.213 338.638 316.013C338.637 316.738 338.637 317.463 338.636 318.188C338.636 318.723 338.636 318.723 338.635 319.269C338.634 321.782 338.634 324.295 338.635 326.808C338.636 329.869 338.633 332.931 338.627 335.992C338.623 337.554 338.622 339.116 338.624 340.678C338.625 342.371 338.621 344.063 338.616 345.756C338.617 346.25 338.619 346.744 338.621 347.252C338.597 351.366 337.793 354.245 334.911 357.252C331.458 359.751 327.952 359.814 323.832 359.777C323.17 359.779 322.508 359.782 321.847 359.786C320.038 359.795 318.23 359.789 316.421 359.782C314.467 359.776 312.513 359.782 310.558 359.788C306.734 359.796 302.91 359.792 299.086 359.784C295.978 359.778 292.87 359.776 289.762 359.778C289.098 359.778 289.098 359.778 288.42 359.778C287.521 359.779 286.621 359.779 285.722 359.78C277.773 359.784 269.825 359.776 261.876 359.763C254.165 359.75 246.454 359.747 238.744 359.754C230.343 359.761 221.943 359.763 213.542 359.755C212.646 359.754 211.751 359.753 210.855 359.753C210.414 359.752 209.973 359.752 209.519 359.751C206.415 359.749 203.31 359.75 200.206 359.753C196.423 359.757 192.64 359.754 188.856 359.742C186.927 359.737 184.997 359.734 183.067 359.739C181.3 359.744 179.533 359.74 177.766 359.729C177.127 359.727 176.488 359.728 175.85 359.732C171.794 359.755 168.926 359.557 165.733 356.867C165.377 356.447 165.377 356.447 165.013 356.019C164.648 355.606 164.648 355.606 164.275 355.185C162.187 351.95 162.043 348.964 162.064 345.217C162.062 344.689 162.059 344.162 162.057 343.618C162.051 342.161 162.052 340.704 162.055 339.247C162.058 337.673 162.052 336.099 162.047 334.525C162.04 331.444 162.039 328.363 162.042 325.282C162.043 322.777 162.043 320.273 162.04 317.768C162.04 317.411 162.04 317.054 162.039 316.686C162.039 315.962 162.038 315.237 162.037 314.512C162.031 307.717 162.034 300.923 162.039 294.128C162.043 287.916 162.037 281.704 162.027 275.491C162.016 269.108 162.011 262.725 162.014 256.341C162.016 252.759 162.015 249.177 162.007 245.595C162 242.546 162 239.497 162.008 236.448C162.012 234.893 162.013 233.339 162.006 231.784C162 230.096 162.005 228.409 162.013 226.722C162.009 226.233 162.004 225.745 162 225.242C162.033 221.78 162.65 218.933 164.945 216.255C165.245 216.015 165.545 215.774 165.854 215.526C166.155 215.276 166.456 215.027 166.767 214.769C168.099 213.85 169.224 213.676 170.798 213.677Z" fill="#E5422B"/>
<path d="M180.733 309.724C181.207 309.719 181.681 309.714 182.169 309.709C182.95 309.715 182.95 309.715 183.746 309.72C184.299 309.717 184.852 309.714 185.422 309.711C186.958 309.704 188.494 309.705 190.03 309.71C191.686 309.713 193.342 309.706 194.998 309.7C198.243 309.69 201.488 309.691 204.733 309.694C207.37 309.697 210.006 309.697 212.643 309.694C213.018 309.693 213.393 309.693 213.78 309.692C214.542 309.692 215.303 309.691 216.065 309.69C223.213 309.682 230.36 309.686 237.507 309.694C244.049 309.701 250.59 309.694 257.131 309.681C263.845 309.668 270.559 309.663 277.273 309.667C278.032 309.668 278.791 309.668 279.55 309.669C279.924 309.669 280.297 309.669 280.682 309.669C283.316 309.67 285.95 309.666 288.584 309.659C291.794 309.651 295.003 309.651 298.213 309.662C299.851 309.667 301.489 309.668 303.127 309.66C304.902 309.651 306.676 309.659 308.451 309.669C308.97 309.664 309.489 309.659 310.024 309.653C313.9 309.699 313.9 309.699 315.292 311.026C316.354 312.574 316.387 313.443 316.287 315.263C316 316.692 315.346 317.487 314.299 318.473C313.185 319.03 312.443 318.979 311.196 318.983C310.727 318.985 310.258 318.987 309.775 318.99C308.996 318.99 308.996 318.99 308.201 318.99C307.378 318.993 307.378 318.993 306.539 318.996C305.011 319.001 303.483 319.004 301.955 319.006C300.31 319.009 298.664 319.014 297.018 319.019C293.041 319.03 289.064 319.036 285.088 319.042C283.965 319.044 282.842 319.046 281.719 319.047C274.751 319.059 267.783 319.069 260.815 319.074C259.2 319.076 257.586 319.077 255.971 319.078C255.369 319.079 255.369 319.079 254.755 319.079C248.252 319.085 241.748 319.1 235.244 319.118C228.571 319.137 221.898 319.148 215.225 319.15C211.476 319.152 207.728 319.157 203.979 319.172C200.788 319.185 197.596 319.189 194.405 319.184C192.776 319.182 191.147 319.183 189.518 319.195C187.753 319.206 185.988 319.201 184.223 319.194C183.707 319.2 183.191 319.206 182.659 319.213C179.2 319.178 179.2 319.178 177.412 317.86C176.494 316.51 176.319 315.804 176.357 314.184C176.356 313.767 176.356 313.35 176.355 312.921C176.878 310.501 178.387 309.727 180.733 309.724Z" fill="white"/>
<path d="M181.788 329.003C182.13 329 182.473 328.996 182.826 328.993C183.974 328.983 185.122 328.987 186.27 328.99C187.093 328.987 187.916 328.982 188.739 328.977C190.975 328.965 193.211 328.964 195.447 328.966C197.313 328.967 199.179 328.963 201.044 328.959C205.446 328.949 209.847 328.948 214.248 328.954C218.791 328.959 223.333 328.948 227.876 328.929C231.774 328.913 235.673 328.908 239.571 328.911C241.9 328.912 244.229 328.91 246.558 328.897C248.748 328.886 250.938 328.888 253.128 328.9C253.932 328.902 254.736 328.899 255.54 328.892C256.638 328.883 257.734 328.89 258.831 328.901C259.15 328.895 259.468 328.888 259.797 328.881C261.032 328.908 261.996 329.013 262.974 329.803C264.058 331.032 264.506 331.872 264.768 333.498C264.469 335.354 263.941 336.336 262.721 337.758C261.094 338.393 259.349 338.272 257.628 338.27C257.295 338.271 256.961 338.272 256.618 338.274C255.501 338.278 254.383 338.278 253.266 338.279C252.465 338.281 251.664 338.283 250.864 338.286C248.688 338.292 246.512 338.295 244.336 338.297C242.977 338.298 241.618 338.3 240.26 338.302C236.009 338.308 231.758 338.312 227.507 338.314C222.598 338.316 217.689 338.324 212.78 338.337C208.986 338.347 205.192 338.351 201.399 338.352C199.132 338.352 196.866 338.355 194.599 338.363C192.468 338.37 190.337 338.371 188.206 338.367C187.424 338.367 186.642 338.369 185.859 338.373C184.792 338.379 183.724 338.376 182.657 338.372C182.192 338.377 182.192 338.377 181.718 338.383C179.795 338.363 178.589 338.033 177.058 336.861C176.484 335.714 176.502 334.835 176.469 333.554C176.452 333.125 176.435 332.696 176.418 332.254C176.893 329.216 179.128 328.975 181.788 329.003Z" fill="white"/>
<g clip-path="url(#clip0_2997_58)">
<mask id="mask0_2997_58" style="mask-type:luminance" maskUnits="userSpaceOnUse" x="176" y="225" width="69" height="69">
<path d="M176.806 225.704H244.488V293.387H176.806V225.704Z" fill="white"/>
</mask>
<g mask="url(#mask0_2997_58)">
<path d="M217.019 234.863C219.356 235.466 221.564 236.392 223.591 237.591C223.591 237.591 224.568 236.614 225.665 235.517C226.461 234.72 227.542 234.272 228.669 234.272C229.795 234.272 230.876 234.72 231.672 235.517C232.639 236.483 233.709 237.554 234.675 238.52C235.473 239.317 235.92 240.398 235.92 241.523C235.92 242.65 235.473 243.731 234.675 244.528C233.578 245.625 232.602 246.602 232.602 246.602C233.8 248.629 234.726 250.837 235.33 253.174H238.257C240.603 253.174 242.505 255.076 242.505 257.422V261.67C242.505 264.015 240.603 265.917 238.257 265.917H235.33C234.726 268.255 233.8 270.463 232.602 272.49C232.602 272.49 233.578 273.467 234.675 274.564C235.473 275.36 235.92 276.441 235.92 277.568C235.92 278.694 235.473 279.775 234.675 280.571C233.709 281.537 232.639 282.608 231.672 283.574C230.876 284.372 229.795 284.819 228.669 284.819C227.542 284.819 226.461 284.372 225.665 283.574C224.568 282.477 223.591 281.5 223.591 281.5C221.564 282.699 219.356 283.625 217.019 284.228V287.156C217.019 289.502 215.117 291.404 212.771 291.404H208.523C206.177 291.404 204.275 289.502 204.275 287.156V284.228C201.938 283.625 199.73 282.699 197.703 281.5C197.703 281.5 196.726 282.477 195.629 283.574C194.832 284.372 193.751 284.819 192.625 284.819C191.499 284.819 190.418 284.372 189.621 283.574C188.655 282.608 187.585 281.537 186.618 280.571C185.821 279.775 185.373 278.694 185.373 277.568C185.373 276.441 185.821 275.36 186.618 274.564C187.715 273.467 188.692 272.49 188.692 272.49C187.493 270.463 186.567 268.255 185.964 265.917H183.036C180.69 265.917 178.788 264.015 178.788 261.67V257.422C178.788 255.076 180.69 253.174 183.036 253.174H185.964C186.567 250.837 187.493 248.629 188.692 246.602C188.692 246.602 187.715 245.625 186.618 244.528C185.821 243.731 185.373 242.65 185.373 241.523C185.373 240.398 185.821 239.317 186.618 238.52C187.585 237.554 188.655 236.483 189.621 235.517C190.418 234.72 191.499 234.272 192.625 234.272C193.751 234.272 194.832 234.72 195.629 235.517C196.726 236.614 197.703 237.591 197.703 237.591C199.73 236.392 201.938 235.466 204.275 234.863V231.935C204.275 229.589 206.177 227.687 208.523 227.687H212.771C215.117 227.687 217.019 229.589 217.019 231.935V234.863Z" stroke="white" stroke-width="6" stroke-miterlimit="10" stroke-linecap="round" stroke-linejoin="round"/>
<path d="M210.647 246.802C217.68 246.802 223.39 252.512 223.39 259.546C223.39 266.579 217.68 272.289 210.647 272.289C203.613 272.289 197.903 266.579 197.903 259.546C197.903 252.512 203.613 246.802 210.647 246.802Z" stroke="white" stroke-width="6" stroke-miterlimit="10" stroke-linecap="round" stroke-linejoin="round"/>
</g>
</g>
<defs>
<linearGradient id="paint0_linear_2997_58" x1="20.5" y1="549" x2="601.198" y2="32.1315" gradientUnits="userSpaceOnUse">
<stop offset="0.105" stop-color="#FB9E3A"/>
<stop offset="1" stop-color="#FB9E3A"/>
</linearGradient>
<linearGradient id="paint1_linear_2997_58" x1="652.547" y1="481.067" x2="-125.892" y2="-207.66" gradientUnits="userSpaceOnUse">
<stop stop-color="#FDAE3E"/>
<stop offset="1" stop-color="#FFE100"/>
</linearGradient>
<linearGradient id="paint2_linear_2997_58" x1="250" y1="110" x2="250" y2="426" gradientUnits="userSpaceOnUse">
<stop stop-color="white"/>
<stop offset="1" stop-color="white"/>
</linearGradient>
<clipPath id="clip0_2997_58">
<rect width="67.6826" height="67.6826" fill="white" transform="translate(176.806 225.704)"/>
</clipPath>
</defs>
</svg>
