<svg width="230" height="230" viewBox="0 0 230 230" fill="none" xmlns="http://www.w3.org/2000/svg">
<path d="M120.479 229.523C131.212 229.523 139.914 220.821 139.914 210.088V203.923C145.668 202.172 151.181 199.872 156.393 197.083C157.615 198.306 159.149 199.839 160.759 201.449V201.45C164.406 205.101 169.353 207.145 174.506 207.146C179.654 207.145 184.6 205.101 188.246 201.452L188.285 201.413C188.291 201.407 188.297 201.4 188.304 201.394C188.31 201.387 188.317 201.381 188.323 201.375L188.362 201.336C188.369 201.33 188.375 201.323 188.381 201.316C188.387 201.31 188.394 201.304 188.4 201.298L188.556 201.143C188.562 201.136 188.568 201.129 188.574 201.123C188.581 201.117 188.587 201.111 188.594 201.104L190.226 199.473C190.232 199.466 190.238 199.459 190.245 199.452C190.252 199.446 190.259 199.439 190.266 199.433L190.425 199.273C190.431 199.267 190.438 199.26 190.444 199.253C190.451 199.246 190.458 199.24 190.465 199.233L190.645 199.054C190.651 199.047 190.657 199.04 190.664 199.033C190.671 199.027 190.678 199.02 190.685 199.014C190.691 199.007 190.697 199 190.704 198.993C190.711 198.987 190.718 198.98 190.725 198.974L190.845 198.854C190.851 198.847 190.858 198.84 190.864 198.833C190.871 198.826 190.878 198.82 190.885 198.813L191.407 198.291C191.414 198.284 191.42 198.277 191.427 198.271C191.433 198.264 191.441 198.258 191.447 198.251L191.568 198.13C191.575 198.123 191.581 198.116 191.588 198.109C191.595 198.103 191.602 198.097 191.608 198.09L191.629 198.069C191.636 198.063 191.642 198.055 191.648 198.049C191.655 198.042 191.662 198.036 191.669 198.029L191.932 197.767C191.938 197.76 191.945 197.753 191.951 197.746C191.958 197.739 191.965 197.733 191.972 197.727L192.134 197.564C192.14 197.558 192.147 197.551 192.153 197.544C192.16 197.537 192.167 197.531 192.174 197.524L192.275 197.423C192.282 197.416 192.288 197.409 192.295 197.402C192.302 197.396 192.309 197.389 192.315 197.383L192.498 197.2C192.505 197.194 192.511 197.186 192.518 197.18C192.524 197.173 192.531 197.167 192.538 197.16L192.579 197.119C192.586 197.112 192.592 197.105 192.599 197.099C192.605 197.092 192.612 197.086 192.619 197.079L192.822 196.876C192.829 196.869 192.835 196.862 192.842 196.855C192.848 196.849 192.856 196.843 192.862 196.836L192.903 196.795C192.91 196.788 192.916 196.781 192.923 196.774C192.93 196.768 192.937 196.762 192.943 196.755L192.984 196.714C192.991 196.707 192.997 196.7 193.004 196.693C193.011 196.687 193.018 196.68 193.024 196.674L193.329 196.369C193.336 196.362 193.342 196.355 193.349 196.349C193.355 196.342 193.362 196.336 193.369 196.329L193.674 196.024C193.68 196.018 193.687 196.011 193.693 196.004C193.7 195.997 193.707 195.991 193.714 195.984L193.755 195.943C193.762 195.937 193.768 195.93 193.774 195.923C193.781 195.916 193.788 195.91 193.795 195.903L193.836 195.862C193.843 195.856 193.849 195.848 193.855 195.842C193.862 195.835 193.869 195.829 193.876 195.822L194.079 195.619C194.086 195.612 194.092 195.605 194.099 195.599C194.105 195.592 194.112 195.586 194.119 195.579L194.16 195.538C194.167 195.531 194.173 195.524 194.18 195.518C194.186 195.511 194.194 195.505 194.2 195.498L194.383 195.315C194.389 195.309 194.396 195.302 194.402 195.295C194.409 195.288 194.416 195.282 194.423 195.275L194.524 195.174C194.531 195.167 194.537 195.16 194.544 195.153C194.551 195.147 194.558 195.14 194.564 195.134L194.727 194.972C194.733 194.965 194.739 194.958 194.746 194.951C194.753 194.945 194.76 194.938 194.767 194.932L195.029 194.669C195.036 194.662 195.042 194.655 195.049 194.648C195.055 194.642 195.063 194.636 195.069 194.629L195.09 194.608C195.097 194.602 195.103 194.595 195.109 194.588C195.116 194.581 195.123 194.575 195.13 194.568L195.251 194.447C195.258 194.441 195.264 194.433 195.271 194.427C195.277 194.42 195.284 194.414 195.291 194.407L195.813 193.885C195.82 193.878 195.826 193.871 195.833 193.864C195.84 193.858 195.847 193.851 195.854 193.845L195.974 193.725C195.98 193.718 195.987 193.711 195.993 193.704C196 193.697 196.007 193.691 196.014 193.685C196.02 193.678 196.027 193.671 196.033 193.664C196.04 193.657 196.047 193.651 196.054 193.645L196.233 193.465C196.24 193.458 196.246 193.451 196.253 193.444C196.26 193.438 196.267 193.431 196.273 193.425L196.433 193.266C196.439 193.259 196.446 193.252 196.452 193.245C196.459 193.238 196.466 193.232 196.473 193.226L198.104 191.594C198.111 191.587 198.117 191.581 198.123 191.574C198.129 191.568 198.136 191.562 198.143 191.556L198.298 191.4C198.304 191.394 198.31 191.387 198.316 191.381C198.323 191.375 198.33 191.369 198.336 191.362L198.375 191.323C198.381 191.317 198.387 191.31 198.394 191.304C198.4 191.297 198.407 191.291 198.413 191.285L198.452 191.246L198.451 191.245C202.1 187.599 204.145 182.654 204.146 177.506C204.145 172.353 202.101 167.406 198.45 163.759H198.449C196.839 162.149 195.306 160.615 194.083 159.392C196.872 154.18 199.172 148.667 200.923 142.914H207.088C217.821 142.914 226.523 134.212 226.523 123.479V109.044C226.523 98.3112 217.821 89.6094 207.088 89.6094H200.923C199.172 83.8558 196.872 78.3426 194.083 73.1309C195.306 71.9074 196.84 70.3724 198.451 68.7617C202.101 65.1154 204.146 60.1697 204.146 55.0176C204.145 49.8679 202.1 44.9205 198.449 41.2744L188.246 31.0713C184.601 27.4227 179.654 25.377 174.506 25.377C169.353 25.377 164.407 27.4223 160.761 31.0713C159.15 32.6817 157.616 34.216 156.393 35.4395C151.181 32.6501 145.667 30.3501 139.914 28.5996V22.4346C139.914 11.7012 131.211 3 120.479 3H106.044C95.3109 3.00015 86.6095 11.7015 86.6094 22.4346V28.5996C80.8561 30.3501 75.3427 32.6501 70.1309 35.4395L65.7627 31.0713C62.1166 27.422 57.1698 25.377 52.0176 25.377C46.8687 25.3771 41.9217 27.4222 38.2764 31.0713C34.9934 34.3547 31.3573 37.9913 28.0732 41.2754C24.4235 44.9211 22.3771 49.8677 22.377 55.0176C22.377 60.1701 24.4224 65.1157 28.0713 68.7617V68.7627C29.6817 70.3731 31.216 71.9075 32.4395 73.1309C29.6501 78.3426 27.3512 83.8561 25.6006 89.6094H19.4355C8.70253 89.6094 0.000160836 98.3112 0 109.044V123.479C9.07239e-05 134.212 8.70248 142.914 19.4355 142.914H25.6006C27.3511 148.667 29.6503 154.18 32.4395 159.392C31.2164 160.615 29.6832 162.149 28.0732 163.759C24.4232 167.405 22.377 172.352 22.377 177.506C22.377 182.655 24.4228 187.601 28.0713 191.246V191.247L38.2773 201.452C41.923 205.102 46.8696 207.145 52.0176 207.146C57.1692 207.146 62.1153 205.101 65.7617 201.451L65.7627 201.452C67.3734 199.841 68.9074 198.306 70.1309 197.083C75.3426 199.872 80.8559 202.172 86.6094 203.923V210.088C86.6094 220.821 95.3106 229.523 106.044 229.523H120.479ZM106.044 219.523C100.834 219.523 96.6094 215.298 96.6094 210.088V200.139C96.6092 197.859 95.0663 195.868 92.8584 195.298C85.3781 193.368 78.3104 190.403 71.8193 186.564C69.9161 185.439 67.5084 185.701 65.8926 187.186L65.7393 187.333L65.7383 187.334L65.7363 187.335C65.7347 187.337 65.7327 187.34 65.7295 187.343C65.7231 187.349 65.7136 187.359 65.7012 187.371C65.676 187.396 65.6379 187.433 65.5889 187.482C65.4908 187.58 65.3468 187.725 65.1621 187.91L58.6895 194.383C56.923 196.152 54.5222 197.146 52.0176 197.146C49.5172 197.145 47.1166 196.152 45.3506 194.384L35.1416 184.175L35.1406 184.173L34.8174 183.835C33.2505 182.106 32.377 179.849 32.377 177.506C32.377 175.001 33.3714 172.6 35.1406 170.833L35.1426 170.832L42.1904 163.784L42.3379 163.63C43.8227 162.014 44.0845 159.606 42.959 157.703C39.1204 151.213 36.1567 144.145 34.2256 136.664C33.6556 134.457 31.6638 132.914 29.3838 132.914H19.4355C14.2251 132.914 10.0001 128.689 10 123.479V109.044C10.0002 103.834 14.2252 99.6094 19.4355 99.6094H29.3838C31.6638 99.6094 33.6556 98.067 34.2256 95.8594C36.1566 88.378 39.1203 81.3109 42.959 74.8203C44.1209 72.8556 43.8036 70.3522 42.1895 68.7383L35.1406 61.6895L34.8174 61.3506C33.2508 59.6219 32.377 57.3655 32.377 55.0176C32.3771 52.5178 33.3714 50.1177 35.1406 48.3506L35.1426 48.3477L45.3506 38.1396C47.117 36.371 49.5176 35.3771 52.0176 35.377C54.5218 35.377 56.9226 36.3718 58.6895 38.1406L65.7393 45.1904C67.3532 46.8044 69.8556 47.1209 71.8203 45.959C78.3109 42.1203 85.3779 39.1562 92.8584 37.2256C95.0663 36.6558 96.6094 34.664 96.6094 32.3838V22.4346C96.6095 17.2244 100.834 13.0002 106.044 13H120.479C125.689 13 129.914 17.2245 129.914 22.4346V32.3838C129.914 34.664 131.457 36.6558 133.665 37.2256C141.146 39.1561 148.213 42.1203 154.703 45.959C156.668 47.121 159.171 46.8038 160.785 45.1895L160.794 45.1807C160.8 45.1743 160.811 45.1649 160.823 45.1523C160.848 45.1271 160.886 45.0891 160.935 45.04L167.832 38.1426L167.833 38.1406C169.6 36.3714 172.001 35.377 174.506 35.377C177.005 35.377 179.406 36.3715 181.173 38.1406L181.175 38.1416L191.381 48.3477L191.383 48.3506C193.152 50.1174 194.145 52.5174 194.146 55.0176C194.146 57.5226 193.152 59.923 191.383 61.6895L184.91 68.1621C184.725 68.3468 184.58 68.4908 184.482 68.5889C184.433 68.6379 184.396 68.676 184.371 68.7012C184.359 68.7136 184.349 68.7231 184.343 68.7295C184.34 68.7327 184.337 68.7347 184.335 68.7363L184.334 68.7383L184.333 68.7393C182.719 70.3531 182.403 72.8548 183.564 74.8193C187.403 81.3103 190.367 88.3782 192.298 95.8594C192.868 98.067 194.86 99.6093 197.14 99.6094H207.088C212.298 99.6094 216.523 103.834 216.523 109.044V123.479C216.523 128.689 212.298 132.914 207.088 132.914H197.14C194.86 132.914 192.868 134.457 192.298 136.664C190.367 144.145 187.403 151.213 183.564 157.703C182.403 159.668 182.719 162.17 184.333 163.784L184.335 163.786C184.337 163.788 184.34 163.79 184.343 163.793C184.349 163.799 184.359 163.81 184.371 163.822C184.396 163.847 184.434 163.885 184.482 163.934C184.58 164.032 184.725 164.176 184.91 164.36C185.28 164.73 185.811 165.262 186.459 165.91L191.383 170.834C193.152 172.601 194.145 175.001 194.146 177.506C194.145 180.006 193.152 182.406 191.383 184.173L191.381 184.176C191.375 184.182 191.368 184.188 191.361 184.194L191.342 184.214C191.335 184.22 191.33 184.227 191.323 184.233C191.317 184.24 191.31 184.246 191.304 184.252L191.265 184.291C191.258 184.297 191.252 184.304 191.246 184.311C191.24 184.317 191.233 184.323 191.227 184.329L191.188 184.368C191.181 184.375 191.175 184.381 191.169 184.388L191.149 184.407C191.143 184.414 191.136 184.419 191.13 184.426L191.091 184.465C191.084 184.471 191.079 184.478 191.072 184.484L191.033 184.523C191.027 184.53 191.02 184.536 191.014 184.542L190.955 184.601C190.949 184.607 190.943 184.614 190.937 184.62L190.878 184.679C190.872 184.685 190.865 184.691 190.858 184.697L190.39 185.166C190.383 185.173 190.377 185.18 190.37 185.187L190.312 185.245C190.305 185.252 190.298 185.258 190.291 185.265L190.213 185.343C190.206 185.349 190.2 185.357 190.193 185.363L190.174 185.383C190.167 185.389 190.16 185.396 190.153 185.402L190.095 185.461C190.088 185.468 190.082 185.475 190.075 185.481L190.056 185.501C190.049 185.508 190.042 185.514 190.035 185.521L189.996 185.56C189.99 185.566 189.983 185.574 189.977 185.58L189.957 185.6C189.95 185.606 189.943 185.613 189.937 185.619L189.917 185.639C189.91 185.645 189.904 185.653 189.897 185.659L189.878 185.679C189.871 185.685 189.864 185.692 189.857 185.698L189.838 185.718C189.831 185.724 189.825 185.732 189.818 185.738L189.799 185.758C189.792 185.764 189.785 185.771 189.778 185.777L189.759 185.797C189.752 185.803 189.746 185.811 189.739 185.817C189.733 185.824 189.725 185.83 189.719 185.837L189.699 185.856C189.693 185.863 189.686 185.87 189.68 185.877L189.66 185.896C189.654 185.903 189.646 185.909 189.64 185.916L189.62 185.936C189.614 185.942 189.607 185.949 189.601 185.956C189.594 185.963 189.587 185.969 189.58 185.976L189.561 185.995C189.554 186.002 189.548 186.009 189.541 186.016C189.534 186.022 189.527 186.029 189.521 186.035L189.501 186.055C189.494 186.061 189.488 186.069 189.481 186.075C189.475 186.082 189.468 186.088 189.461 186.095C189.454 186.101 189.448 186.109 189.441 186.115C189.435 186.122 189.427 186.128 189.421 186.135L189.401 186.154C189.395 186.161 189.388 186.168 189.382 186.175C189.375 186.181 189.368 186.188 189.361 186.194L189.342 186.214C189.335 186.22 189.329 186.228 189.322 186.234C189.316 186.241 189.308 186.247 189.302 186.254C189.295 186.261 189.289 186.268 189.282 186.274C189.276 186.281 189.268 186.287 189.262 186.294L189.242 186.313C189.236 186.32 189.229 186.327 189.223 186.334C189.216 186.341 189.209 186.347 189.202 186.354C189.196 186.36 189.189 186.367 189.183 186.374C189.176 186.381 189.169 186.387 189.162 186.394C189.155 186.4 189.149 186.407 189.143 186.414C189.136 186.421 189.129 186.427 189.122 186.434L189.062 186.493C189.056 186.5 189.05 186.507 189.043 186.514C189.036 186.52 189.029 186.527 189.022 186.533C189.016 186.54 189.01 186.547 189.003 186.554C188.996 186.56 188.989 186.567 188.982 186.573C188.976 186.58 188.97 186.587 188.963 186.594C188.956 186.6 188.949 186.607 188.942 186.613C188.936 186.62 188.93 186.627 188.923 186.634C188.916 186.64 188.909 186.647 188.902 186.653C188.896 186.66 188.889 186.667 188.883 186.674C188.876 186.68 188.869 186.687 188.862 186.693C188.856 186.7 188.849 186.707 188.843 186.714C188.836 186.721 188.829 186.727 188.822 186.733C188.816 186.74 188.809 186.747 188.803 186.754C188.796 186.761 188.789 186.767 188.782 186.773C188.776 186.78 188.769 186.787 188.763 186.794C188.756 186.801 188.749 186.807 188.742 186.813C188.736 186.82 188.729 186.827 188.723 186.834C188.716 186.841 188.709 186.847 188.702 186.854C188.696 186.86 188.689 186.867 188.683 186.874C188.676 186.881 188.669 186.887 188.662 186.894C188.655 186.9 188.649 186.907 188.643 186.914C188.636 186.921 188.629 186.927 188.622 186.934L188.602 186.954C188.595 186.961 188.589 186.968 188.582 186.975C188.575 186.981 188.568 186.988 188.562 186.994C188.555 187.001 188.549 187.008 188.542 187.015C188.535 187.021 188.528 187.028 188.521 187.034C188.515 187.041 188.509 187.048 188.502 187.055C188.495 187.061 188.488 187.068 188.481 187.074L188.421 187.135C188.414 187.141 188.408 187.149 188.401 187.155C188.395 187.162 188.388 187.168 188.381 187.175C188.374 187.181 188.368 187.189 188.361 187.195C188.355 187.202 188.347 187.208 188.341 187.215L188.32 187.235C188.314 187.242 188.307 187.249 188.301 187.256C188.294 187.263 188.287 187.269 188.28 187.275C188.274 187.282 188.267 187.289 188.261 187.296C188.254 187.303 188.247 187.309 188.24 187.315L188.22 187.336C188.213 187.343 188.207 187.35 188.2 187.356C188.194 187.363 188.186 187.369 188.18 187.376L188.159 187.396C188.153 187.403 188.146 187.41 188.14 187.417C188.133 187.424 188.126 187.43 188.119 187.437C188.112 187.443 188.106 187.45 188.1 187.457C188.093 187.464 188.086 187.47 188.079 187.477L188.059 187.497C188.052 187.504 188.046 187.511 188.039 187.518C188.032 187.524 188.025 187.53 188.019 187.537L187.998 187.558C187.991 187.564 187.985 187.571 187.979 187.578C187.972 187.585 187.965 187.591 187.958 187.598L187.938 187.618C187.931 187.625 187.925 187.632 187.918 187.639C187.911 187.645 187.904 187.652 187.897 187.658L187.877 187.679C187.87 187.685 187.864 187.693 187.857 187.699C187.851 187.706 187.844 187.712 187.837 187.719L187.816 187.739C187.81 187.746 187.804 187.753 187.797 187.76C187.79 187.766 187.783 187.773 187.776 187.779L187.756 187.8C187.749 187.806 187.743 187.814 187.736 187.82C187.73 187.827 187.722 187.833 187.716 187.84L187.695 187.86C187.689 187.867 187.682 187.874 187.676 187.881C187.669 187.888 187.662 187.894 187.655 187.9L187.635 187.921C187.628 187.928 187.622 187.935 187.615 187.941C187.609 187.948 187.601 187.954 187.595 187.961L187.574 187.981C187.568 187.988 187.561 187.995 187.555 188.002L187.534 188.022C187.528 188.029 187.52 188.035 187.514 188.042L187.493 188.062C187.486 188.069 187.48 188.076 187.474 188.083C187.467 188.09 187.46 188.096 187.453 188.103L187.433 188.123C187.426 188.13 187.42 188.137 187.413 188.144L187.393 188.164C187.386 188.171 187.379 188.177 187.372 188.184L187.352 188.204C187.345 188.211 187.339 188.218 187.332 188.225C187.325 188.231 187.318 188.237 187.312 188.244L187.291 188.265C187.284 188.271 187.278 188.278 187.271 188.285L187.251 188.306C187.244 188.312 187.237 188.319 187.23 188.325L187.21 188.346C187.203 188.352 187.197 188.36 187.19 188.366L187.17 188.387C187.163 188.393 187.156 188.4 187.149 188.406L187.129 188.427C187.122 188.433 187.116 188.441 187.109 188.447C187.103 188.454 187.096 188.46 187.089 188.467L187.048 188.508C187.041 188.514 187.035 188.522 187.028 188.528C187.022 188.535 187.014 188.541 187.008 188.548L186.967 188.589C186.96 188.596 186.954 188.603 186.947 188.609C186.941 188.616 186.933 188.622 186.927 188.629L186.886 188.67C186.879 188.677 186.873 188.684 186.866 188.69C186.86 188.697 186.852 188.703 186.846 188.71L186.805 188.751C186.798 188.758 186.792 188.765 186.785 188.771C186.778 188.778 186.771 188.784 186.765 188.791L186.724 188.832C186.717 188.839 186.711 188.846 186.704 188.853C186.697 188.859 186.69 188.865 186.684 188.872L186.643 188.913C186.636 188.92 186.63 188.927 186.623 188.934C186.616 188.94 186.609 188.946 186.603 188.953L186.562 188.994C186.555 189.001 186.549 189.008 186.542 189.015L186.521 189.035C186.515 189.042 186.508 189.048 186.501 189.055L186.48 189.075C186.474 189.082 186.468 189.089 186.461 189.096L186.44 189.116C186.434 189.123 186.427 189.129 186.42 189.136L186.399 189.156C186.393 189.163 186.387 189.17 186.38 189.177L186.359 189.197C186.353 189.204 186.346 189.21 186.339 189.217L186.298 189.258C186.291 189.264 186.285 189.272 186.278 189.278C186.272 189.285 186.264 189.291 186.258 189.298L186.217 189.339C186.21 189.346 186.204 189.353 186.197 189.359L186.177 189.38C186.17 189.387 186.163 189.393 186.156 189.399L186.136 189.42C186.129 189.427 186.123 189.434 186.116 189.44L186.096 189.461C186.089 189.468 186.082 189.474 186.075 189.48L186.055 189.501C186.048 189.508 186.042 189.515 186.035 189.521L186.015 189.542C186.008 189.549 186.001 189.555 185.994 189.562L185.953 189.603C185.946 189.609 185.94 189.616 185.934 189.623C185.927 189.63 185.92 189.636 185.913 189.643L185.872 189.684C185.865 189.69 185.859 189.697 185.853 189.704C185.846 189.711 185.839 189.717 185.832 189.724L185.791 189.765C185.784 189.771 185.778 189.778 185.771 189.785C185.765 189.792 185.758 189.798 185.751 189.805L185.71 189.846C185.703 189.852 185.697 189.86 185.69 189.866C185.684 189.873 185.677 189.879 185.67 189.886L185.629 189.927C185.622 189.933 185.616 189.941 185.609 189.947C185.603 189.954 185.596 189.96 185.589 189.967L185.548 190.008C185.541 190.014 185.535 190.022 185.528 190.028C185.522 190.035 185.514 190.041 185.508 190.048L185.467 190.089C185.46 190.096 185.454 190.103 185.447 190.109C185.441 190.116 185.433 190.122 185.427 190.129L185.406 190.149C185.4 190.156 185.393 190.163 185.387 190.17L185.366 190.19C185.36 190.197 185.352 190.203 185.346 190.21L185.325 190.23C185.319 190.237 185.312 190.244 185.306 190.251L185.285 190.271C185.278 190.278 185.271 190.284 185.265 190.291L185.244 190.312C185.237 190.318 185.231 190.325 185.225 190.332C185.218 190.339 185.211 190.345 185.204 190.352L185.184 190.372C185.177 190.379 185.171 190.386 185.164 190.393L185.144 190.413C185.137 190.42 185.13 190.426 185.123 190.433L185.103 190.453C185.096 190.46 185.09 190.467 185.083 190.474C185.076 190.48 185.069 190.486 185.062 190.493L185.042 190.514C185.035 190.52 185.029 190.528 185.022 190.534L185.002 190.555C184.995 190.561 184.988 190.568 184.981 190.574L184.961 190.595C184.954 190.601 184.948 190.609 184.941 190.615C184.935 190.622 184.928 190.628 184.921 190.635L184.9 190.655C184.894 190.662 184.888 190.669 184.881 190.676C184.874 190.682 184.867 190.689 184.86 190.695L184.84 190.716C184.833 190.722 184.827 190.73 184.82 190.736C184.814 190.743 184.806 190.749 184.8 190.756L184.779 190.776C184.773 190.783 184.766 190.79 184.76 190.797C184.753 190.804 184.746 190.81 184.739 190.816L184.719 190.837C184.712 190.844 184.706 190.851 184.699 190.857C184.693 190.864 184.685 190.87 184.679 190.877L184.658 190.897C184.652 190.904 184.645 190.911 184.639 190.918C184.632 190.925 184.625 190.931 184.618 190.938L184.598 190.958C184.591 190.965 184.585 190.972 184.578 190.979C184.571 190.985 184.564 190.991 184.558 190.998L184.537 191.019C184.53 191.025 184.524 191.032 184.518 191.039C184.511 191.046 184.504 191.052 184.497 191.059L184.477 191.079C184.47 191.086 184.464 191.093 184.457 191.1C184.45 191.106 184.443 191.112 184.437 191.119C184.43 191.126 184.424 191.133 184.417 191.14C184.41 191.146 184.403 191.153 184.396 191.159L184.376 191.18C184.369 191.186 184.363 191.194 184.356 191.2C184.35 191.207 184.343 191.213 184.336 191.22L184.315 191.24C184.309 191.247 184.303 191.254 184.296 191.261C184.289 191.267 184.282 191.274 184.275 191.28C184.269 191.287 184.263 191.294 184.256 191.301C184.249 191.307 184.242 191.314 184.235 191.32L184.215 191.341C184.208 191.347 184.202 191.355 184.195 191.361C184.189 191.368 184.181 191.374 184.175 191.381C184.168 191.388 184.162 191.395 184.155 191.401C184.149 191.408 184.141 191.414 184.135 191.421L184.074 191.481C184.068 191.488 184.061 191.495 184.055 191.502C184.048 191.509 184.041 191.515 184.034 191.521C184.028 191.528 184.021 191.535 184.015 191.542C184.008 191.549 184.001 191.555 183.994 191.562C183.988 191.568 183.981 191.575 183.975 191.582C183.968 191.589 183.961 191.595 183.954 191.602L183.934 191.622C183.927 191.629 183.921 191.636 183.914 191.643C183.907 191.649 183.9 191.655 183.894 191.662C183.887 191.669 183.881 191.676 183.874 191.683C183.867 191.689 183.86 191.696 183.854 191.702C183.847 191.709 183.841 191.716 183.834 191.723C183.827 191.729 183.82 191.736 183.813 191.742C183.807 191.749 183.801 191.756 183.794 191.763C183.787 191.769 183.78 191.776 183.773 191.782C183.767 191.789 183.761 191.796 183.754 191.803C183.747 191.809 183.74 191.816 183.733 191.822C183.727 191.829 183.721 191.836 183.714 191.843C183.707 191.849 183.7 191.856 183.693 191.862C183.687 191.869 183.68 191.876 183.674 191.883C183.667 191.889 183.66 191.896 183.653 191.902C183.647 191.909 183.64 191.916 183.634 191.923C183.627 191.93 183.62 191.936 183.613 191.942C183.607 191.949 183.6 191.956 183.594 191.963C183.587 191.97 183.58 191.976 183.573 191.982C183.567 191.989 183.56 191.996 183.554 192.003C183.547 192.01 183.54 192.016 183.533 192.022C183.527 192.029 183.52 192.036 183.514 192.043C183.507 192.05 183.5 192.056 183.493 192.062L183.434 192.122C183.427 192.129 183.421 192.136 183.414 192.143C183.407 192.149 183.4 192.155 183.394 192.162C183.387 192.169 183.381 192.176 183.374 192.183C183.367 192.189 183.36 192.196 183.354 192.202C183.347 192.209 183.341 192.216 183.334 192.223C183.327 192.229 183.32 192.236 183.313 192.242L183.294 192.262C183.287 192.268 183.281 192.276 183.274 192.282C183.268 192.289 183.261 192.295 183.254 192.302C183.247 192.308 183.241 192.316 183.234 192.322C183.228 192.329 183.22 192.335 183.214 192.342L183.194 192.361C183.188 192.368 183.181 192.375 183.175 192.382C183.168 192.388 183.161 192.395 183.154 192.401L183.135 192.421C183.128 192.427 183.122 192.435 183.115 192.441C183.109 192.448 183.101 192.454 183.095 192.461C183.088 192.468 183.082 192.475 183.075 192.481C183.069 192.488 183.061 192.494 183.055 192.501L183.035 192.521C183.029 192.527 183.022 192.534 183.016 192.541C183.009 192.548 183.002 192.554 182.995 192.561L182.976 192.58C182.969 192.587 182.963 192.594 182.956 192.601C182.949 192.607 182.942 192.614 182.936 192.62L182.916 192.64C182.909 192.646 182.903 192.654 182.896 192.66L182.877 192.68C182.87 192.686 182.863 192.693 182.856 192.699L182.837 192.719C182.83 192.725 182.824 192.733 182.817 192.739C182.811 192.746 182.803 192.752 182.797 192.759L182.777 192.778C182.771 192.785 182.764 192.792 182.758 192.799L182.738 192.818C182.732 192.825 182.724 192.831 182.718 192.838L182.698 192.857C182.692 192.864 182.685 192.871 182.679 192.878L182.659 192.897C182.653 192.904 182.645 192.91 182.639 192.917L182.619 192.937C182.613 192.943 182.606 192.95 182.6 192.957L182.58 192.977C182.574 192.983 182.566 192.99 182.56 192.996L182.521 193.035C182.514 193.042 182.508 193.049 182.501 193.056L182.481 193.075C182.475 193.082 182.468 193.088 182.461 193.095L182.402 193.153C182.396 193.16 182.389 193.167 182.383 193.174L182.363 193.193C182.357 193.2 182.349 193.206 182.343 193.213L182.265 193.291C182.258 193.298 182.252 193.305 182.245 193.312L182.187 193.37C182.18 193.377 182.173 193.383 182.166 193.39L181.697 193.858C181.691 193.865 181.685 193.872 181.679 193.878L181.62 193.937C181.614 193.943 181.607 193.949 181.601 193.955L181.542 194.014C181.536 194.02 181.53 194.027 181.523 194.033L181.484 194.072C181.478 194.079 181.471 194.084 181.465 194.091L181.426 194.13C181.419 194.136 181.414 194.143 181.407 194.149L181.388 194.169C181.381 194.175 181.375 194.181 181.368 194.188L181.329 194.227C181.323 194.233 181.317 194.24 181.311 194.246C181.304 194.252 181.297 194.258 181.291 194.265L181.252 194.304C181.246 194.31 181.24 194.317 181.233 194.323C181.227 194.33 181.22 194.335 181.214 194.342L181.194 194.361C181.188 194.368 181.182 194.375 181.176 194.381L181.173 194.383C179.406 196.152 177.006 197.145 174.506 197.146C172.001 197.145 169.601 196.152 167.834 194.383L160.785 187.334V187.333H160.784C159.221 185.77 156.824 185.424 154.89 186.46L154.704 186.564C148.213 190.403 141.145 193.368 133.665 195.298C131.457 195.868 129.914 197.859 129.914 200.139V210.088C129.914 215.298 125.689 219.523 120.479 219.523H106.044ZM113.262 164.566C139.924 164.566 161.566 142.923 161.566 116.262C161.566 89.5997 139.924 67.9571 113.262 67.957C86.5997 67.9571 64.9571 89.5997 64.957 116.262C64.9571 142.923 86.5996 164.566 113.262 164.566ZM113.262 154.566C92.1225 154.566 74.9571 137.401 74.957 116.262C74.9571 95.1225 92.1225 77.9571 113.262 77.957C134.401 77.9571 151.566 95.1225 151.566 116.262C151.566 137.401 134.401 154.566 113.262 154.566Z" fill="white"/>
</svg>
